
<svg id="Layer_1" xmlns="http://www.w3.org/2000/svg" version="1.1" viewBox="0 0 255.29274 72">
  
  <defs>
    <style>
      .st0 {
        fill: #07182d;
      }
    </style>
  </defs>
  <rect class="st0" x="130.51562" y="23.52952" width=".75" height="26.11279"></rect>
  <g>
    <g>
      <rect class="st0" x="112.28688" y="30.48401" width="11.01003" height="4.68752" transform="translate(150.61967 -84.96412) rotate(90)"></rect>
      <circle class="st0" cx="117.7919" cy="43.0655" r="2.78358"></circle>
    </g>
    <g>
      <g>
        <path class="st0" d="M78.54381,30.62502h1.70558v10.41424h5.61261v1.50675h-7.31819v-11.92099Z"></path>
        <path class="st0" d="M88.94672,32.49598h-1.78814v-1.87096h1.78814v1.87096ZM88.84744,42.54602h-1.58957v-8.60965h1.58957v8.60965Z"></path>
        <path class="st0" d="M96.53416,33.93636h1.6554l-3.02969,8.60965h-2.15235l-2.99677-8.60965h1.7385l2.38382,7.31819,2.40109-7.31819Z"></path>
        <path class="st0" d="M104.95037,40.06237h1.72177c-.24281.87222-.72302,1.55639-1.44065,2.05306-.67338.4527-1.47896.67905-2.41727.67905-1.35756,0-2.41727-.43058-3.17861-1.29146-.69551-.80558-1.04353-1.89308-1.04353-3.2617,0-1.55639.44137-2.73751,1.32464-3.54336.72842-.67311,1.66673-1.00981,2.81494-1.00981,1.34623,0,2.3617.43624,3.04641,1.30792.66205.83903.99335,2.03661.99335,3.59273h-6.55632c.06583,1.01574.375,1.77168.92698,2.26835.45216.39739,1.02626.59623,1.72177.59623.54065,0,1.01008-.14919,1.4072-.44703.3313-.25387.55738-.56844.67932-.94398ZM102.76457,34.9629c-.7063,0-1.275.22095-1.70504.66232-.40899.40845-.66799.97689-.7786,1.70531h4.868c-.05558-.8277-.3313-1.44578-.82824-1.85423-.39712-.34209-.91619-.5134-1.55612-.5134Z"></path>
      </g>
      <g>
        <path class="st0" d="M64.0551,33.43523c-1.78208,0-3.10515,1.40215-3.10515,3.13037,0,1.73194,1.32307,3.13304,3.10515,3.13304,1.78025,0,3.10716-1.4011,3.10716-3.13304,0-1.72822-1.3269-3.13037-3.10716-3.13037h0ZM70.34551,36.5656c0,3.40537-2.62951,6.16495-6.29042,6.16495s-6.28661-2.75958-6.28661-6.16495c0-3.39982,2.62581-6.16121,6.28661-6.16121s6.29042,2.76138,6.29042,6.16121h0Z"></path>
        <path class="st0" d="M54.60568,34.02617c-.12265-.06315-1.09085-.63545-2.52735-.63545-1.94193,0-3.2892,1.3518-3.2892,3.17488,0,1.76905,1.28972,3.17767,3.2892,3.17767,1.41234,0,2.39535-.56034,2.52735-.63185v3.19535c-.37726.10598-1.40305.42378-2.73734.42378-3.37831,0-6.34419-2.32947-6.34419-6.16495,0-3.55499,2.68336-6.16121,6.34419-6.16121,1.40859,0,2.45302.3428,2.73734.42645v3.19532h0Z"></path>
        <path class="st0" d="M41.77685,33.32097c-.04463-.01391-1.30917-.36327-2.348-.36327-1.20415,0-1.85827.40322-1.85827.97564,0,.72471.88267.97741,1.37703,1.13354l.82883.26382c1.9493.6198,2.8376,1.95496,2.8376,3.40537,0,2.99001-2.62953,3.99448-4.92822,3.99448-1.59817,0-3.09413-.29364-3.24178-.32523v-2.73911c.26478.06687,1.52372.44222,2.83664.44222,1.49405,0,2.18168-.4367,2.18168-1.11129,0-.60305-.59466-.95145-1.33984-1.1856-.18211-.06031-.45528-.14585-.6412-.20711-1.67332-.52875-3.06803-1.51179-3.06803-3.48252,0-2.22619,1.66696-3.72122,4.43574-3.72122,1.4626,0,2.83856.35491,2.92782.37906v2.54123h0Z"></path>
        <polygon class="st0" points="30.38542 42.51864 27.38147 42.51864 27.38147 30.61531 30.38542 30.61531 30.38542 42.51864 30.38542 42.51864"></polygon>
        <path class="st0" d="M23.25238,34.02617c-.12082-.06315-1.08711-.63545-2.52363-.63545-1.94561,0-3.29193,1.3518-3.29193,3.17488,0,1.76905,1.29056,3.17767,3.29193,3.17767,1.41234,0,2.39442-.56034,2.52363-.63185v3.19535c-.37352.10598-1.3975.42378-2.73914.42378-3.3766,0-6.33867-2.32947-6.33867-6.16495,0-3.55499,2.68342-6.16121,6.33867-6.16121,1.41318,0,2.45665.3428,2.73914.42645v3.19532h0Z"></path>
      </g>
    </g>
  </g>
  <g>
    <g>
      <path class="st0" d="M142.35352,26.26318h.99023v5.68262h2.97363v.84863h-3.96387v-6.53125Z"></path>
      <path class="st0" d="M147.14746,31.41064c0-1.11328.95508-1.35547,1.8877-1.46387.88477-.10254,1.24316-.0957,1.24316-.44336v-.02246c0-.55469-.31738-.87695-.93555-.87695-.64453,0-1.00293.33496-1.14355.68262l-.90137-.2041c.32129-.89355,1.1416-1.25,2.03223-1.25.78125,0,1.90918.2832,1.90918,1.70898v3.25293h-.93555v-.66992h-.03809c-.18262.36719-.64062.77832-1.45508.77832-.93555,0-1.66309-.5293-1.66309-1.49219ZM150.28125,31.02783v-.63184c-.1377.1377-.87402.2207-1.18555.26172-.55371.07324-1.00879.25488-1.00879.76562,0,.47168.39062.71387.93262.71387.79785,0,1.26172-.5293,1.26172-1.10938Z"></path>
      <path class="st0" d="M155.34473,29.24463c-.1123-.32812-.3877-.65625-.9834-.65625-.54492,0-.95508.26758-.95215.64355-.00293.33203.23047.51367.77246.6416l.78223.17871c.90332.20703,1.3457.63379,1.3457,1.32617,0,.88672-.82422,1.51465-2.0127,1.51465-1.10547,0-1.83008-.4873-1.99023-1.35547l.92676-.13965c.11523.48145.4834.72656,1.05664.72656.62891,0,1.03516-.2959,1.03516-.67578,0-.30664-.2207-.5166-.69531-.62207l-.83301-.18164c-.92285-.2041-1.3457-.66699-1.3457-1.36133,0-.86816.78809-1.45117,1.90039-1.45117,1.06348,0,1.66309.49707,1.86133,1.25977l-.86816.15234Z"></path>
      <path class="st0" d="M162.24219,31.58252h.07324l1.82715-5.31934h1.07031l-2.3623,6.53125h-1.14355l-2.36133-6.53125h1.07031l1.82617,5.31934Z"></path>
      <path class="st0" d="M165.37695,30.37744c0-1.50586.90332-2.54492,2.27539-2.54492,1.11523,0,2.17871.69141,2.17871,2.46191v.33789h-3.49902c.02539.94434.57715,1.47363,1.39746,1.47363.54395,0,.96094-.23633,1.13379-.69922l.90723.16309c-.21777.79688-.97754,1.32324-2.05078,1.32324-1.45215,0-2.34277-.99512-2.34277-2.51562ZM168.89258,29.91748c-.00391-.74902-.49023-1.29785-1.23438-1.29785-.77832,0-1.28418.60352-1.32324,1.29785h2.55762Z"></path>
      <path class="st0" d="M170.87988,33.62354l.82324-.33789c.16992.28027.48047.67871,1.27832.67871.72754,0,1.25684-.33105,1.25684-1.09961v-.96289h-.06152c-.17285.3125-.52148.81934-1.42578.81934-1.16309,0-2.05664-.83203-2.05664-2.39551,0-1.55859.87402-2.49316,2.06348-2.49316.91602,0,1.25586.55469,1.42578.85742h.07031v-.79395h.93945v5.00684c0,1.25977-.96777,1.83008-2.2207,1.83008-1.17676,0-1.83301-.50977-2.09277-1.10938ZM174.24805,30.31299c0-.99121-.44922-1.6709-1.28516-1.6709-.86523,0-1.30078.73047-1.30078,1.6709,0,.96387.44531,1.61719,1.30078,1.61719.82617,0,1.28516-.60547,1.28516-1.61719Z"></path>
      <path class="st0" d="M176.25781,31.41064c0-1.11328.95508-1.35547,1.8877-1.46387.88477-.10254,1.24316-.0957,1.24316-.44336v-.02246c0-.55469-.31738-.87695-.93555-.87695-.64453,0-1.00293.33496-1.14355.68262l-.90039-.2041c.32031-.89355,1.14062-1.25,2.03125-1.25.78125,0,1.90918.2832,1.90918,1.70898v3.25293h-.93555v-.66992h-.03809c-.18262.36719-.64062.77832-1.45508.77832-.93555,0-1.66309-.5293-1.66309-1.49219ZM179.3916,31.02783v-.63184c-.1377.1377-.87402.2207-1.18555.26172-.55371.07324-1.00879.25488-1.00879.76562,0,.47168.39062.71387.93262.71387.79785,0,1.26172-.5293,1.26172-1.10938Z"></path>
      <path class="st0" d="M184.45508,29.24463c-.1123-.32812-.3877-.65625-.9834-.65625-.54492,0-.95508.26758-.95215.64355-.00293.33203.23047.51367.77246.6416l.78223.17871c.90332.20703,1.3457.63379,1.3457,1.32617,0,.88672-.82422,1.51465-2.0127,1.51465-1.10547,0-1.83008-.4873-1.99023-1.35547l.92676-.13965c.11523.48145.4834.72656,1.05762.72656.62793,0,1.03418-.2959,1.03418-.67578,0-.30664-.2207-.5166-.69531-.62207l-.83301-.18164c-.92285-.2041-1.3457-.66699-1.3457-1.36133,0-.86816.78809-1.45117,1.90039-1.45117,1.06348,0,1.66309.49707,1.86133,1.25977l-.86816.15234Z"></path>
      <path class="st0" d="M187.67871,32.24951c-.09961.76465-.43945,1.72168-.59277,2.13965h-.67969c.08691-.39551.29199-1.2666.36523-2.13086l.03223-.35645h.92285l-.04785.34766Z"></path>
      <path class="st0" d="M196.74609,32.79443h-.91016l-3.33496-4.79004h-.06152v4.79004h-.99023v-6.53125h.91699l3.33887,4.7959h.06055v-4.7959h.98047v6.53125Z"></path>
      <path class="st0" d="M200.60156,31.58252h.07324l1.82715-5.31934h1.07031l-2.3623,6.53125h-1.14355l-2.36133-6.53125h1.07031l1.82617,5.31934Z"></path>
    </g>
    <g>
      <path class="st0" d="M143.55566,38.74219l2.08887,5.07715h.07715l2.08887-5.07715h1.20215v6.53125h-.94238v-4.72656h-.06055l-1.93555,4.7168h-.78223l-1.93555-4.71973h-.06055v4.72949h-.94238v-6.53125h1.20215Z"></path>
      <path class="st0" d="M150.16211,43.88965c0-1.11328.95508-1.35547,1.8877-1.46387.88477-.10254,1.24316-.0957,1.24316-.44336v-.02246c0-.55469-.31738-.87695-.93555-.87695-.64453,0-1.00293.33496-1.14355.68262l-.90039-.2041c.32031-.89355,1.14062-1.25,2.03125-1.25.78125,0,1.90918.2832,1.90918,1.70898v3.25293h-.93555v-.66992h-.03809c-.18262.36719-.64062.77832-1.45508.77832-.93555,0-1.66309-.5293-1.66309-1.49219ZM153.2959,43.50684v-.63184c-.1377.1377-.87402.2207-1.18555.26172-.55371.07324-1.00879.25488-1.00879.76562,0,.47168.39062.71387.93262.71387.79785,0,1.26172-.5293,1.26172-1.10938Z"></path>
      <path class="st0" d="M155.31152,47.00488l.23145-.78125c.52539.14355.86816.08984,1.11133-.56152l.11914-.3252-1.80176-4.96191h1.02539l1.24707,3.80176h.05078l1.24707-3.80176h1.02832l-2.02832,5.55176c-.28516.77246-.78516,1.18359-1.57617,1.18359-.28906,0-.53906-.05469-.6543-.10547Z"></path>
      <path class="st0" d="M162.83105,43.57031h1.00586c.03809.58105.59277.94434,1.30371.94434.77246,0,1.32715-.43066,1.32715-1.06543,0-.65723-.52539-1.11621-1.43555-1.11621h-.55469v-.80371h.55469c.72754,0,1.23633-.41406,1.2334-1.0459.00293-.60254-.43555-1.00781-1.10547-1.00781-.64355,0-1.21094.36328-1.2334.96289h-.95801c.03223-1.06152.99902-1.78516,2.2041-1.78516,1.2627,0,2.05371.81934,2.05078,1.7793.00293.7334-.44238,1.26953-1.12793,1.44434v.05078c.87207.13477,1.375.72754,1.37207,1.55371.00293,1.08398-.98047,1.88086-2.32031,1.88086-1.32617,0-2.27539-.72656-2.31641-1.79199Z"></path>
      <path class="st0" d="M171.17676,45.27344h-.99316v-5.54297h-.03906l-1.56934,1.02051v-.94336l1.63672-1.06543h.96484v6.53125Z"></path>
      <path class="st0" d="M176.84082,42.42285h-4.51172v-.82617h4.51172v.82617Z"></path>
      <path class="st0" d="M181.1084,38.74219v4.63086c-.00391,1.25586-.79199,1.98926-1.99609,1.98926-1.1123,0-1.94531-.61816-1.94531-1.72168h.9834c.00293.54199.40723.88672.9873.88672.62793,0,.98047-.40234.9834-1.1543v-4.63086h.9873Z"></path>
      <path class="st0" d="M185.60059,40.375h.96189v4.89844h-.94236v-.84863h-.05176c-.22754.52344-.73047.91211-1.4707.91211-.94531,0-1.61426-.63086-1.61426-1.8457v-3.11621h.95801v3.00098c0,.66602.41016,1.09375,1.00293,1.09375.53809,0,1.15918-.39551,1.15625-1.22754v-2.86719Z"></path>
      <path class="st0" d="M188.81543,45.27344h-.95801v-4.89844h.91895v.79688h.06152c.22754-.51953.71094-.86035,1.45117-.86035,1.00586,0,1.67578.63477,1.67578,1.8457v3.11621h-.95801v-3.00098c0-.71094-.39453-1.13574-1.04492-1.13574-.66602,0-1.14648.44727-1.14648,1.22852v2.9082Z"></path>
      <path class="st0" d="M193.03613,42.85645c0-1.50586.90332-2.54492,2.27539-2.54492,1.11523,0,2.17871.69141,2.17871,2.46191v.33789h-3.49902c.02539.94434.57715,1.47363,1.39746,1.47363.54395,0,.96094-.23633,1.13379-.69922l.90723.16309c-.21777.79688-.97754,1.32324-2.05078,1.32324-1.45215,0-2.34277-.99512-2.34277-2.51562ZM196.55176,42.39648c-.00391-.74902-.49023-1.29785-1.23438-1.29785-.77832,0-1.28418.60352-1.32324,1.29785h2.55762Z"></path>
      <path class="st0" d="M200.81152,43.2002l2.83594-4.45801h1.2207v4.41992h.86914v.83594h-.86914v1.27539h-.94531v-1.27539h-3.11133v-.79785ZM203.92969,39.91602h-.05176l-2.02832,3.19531v.05078h2.08008v-3.24609Z"></path>
      <path class="st0" d="M207.82715,44.72852c-.09961.76465-.43945,1.72168-.59277,2.13965h-.67969c.08691-.39551.29199-1.2666.36523-2.13086l.03223-.35645h.92285l-.04785.34766Z"></path>
      <path class="st0" d="M211.50879,44.55957l2.2207-2.29004c.70508-.74316,1.05176-1.1582,1.05176-1.73535,0-.65039-.50684-1.05859-1.17285-1.05859-.70898,0-1.16309.45898-1.16016,1.16113h-.94531c0-1.19336.89746-1.9834,2.12402-1.9834,1.2373,0,2.0957.80273,2.0957,1.85254,0,.73047-.34277,1.30762-1.54395,2.51562l-1.30469,1.35938v.04785h2.95508v.84473h-4.32031v-.71387Z"></path>
      <path class="st0" d="M216.93164,42.01074c.00293-2.12695.90039-3.35742,2.40625-3.35742,1.50293,0,2.40332,1.2334,2.40332,3.35742,0,2.14062-.8877,3.37109-2.40332,3.37109-1.51855-.00293-2.40625-1.23438-2.40625-3.37109ZM220.75781,42.01074c0-1.62598-.53906-2.52246-1.41992-2.52246-.88477,0-1.41992.89648-1.42285,2.52246,0,1.63281.53516,2.51953,1.42285,2.51953.88477,0,1.41992-.88672,1.41992-2.51953Z"></path>
      <path class="st0" d="M222.89355,44.55957l2.2207-2.29004c.70508-.74316,1.05176-1.1582,1.05176-1.73535,0-.65039-.50684-1.05859-1.17285-1.05859-.70898,0-1.16309.45898-1.16016,1.16113h-.94531c0-1.19336.89746-1.9834,2.12402-1.9834,1.2373,0,2.0957.80273,2.0957,1.85254,0,.73047-.34277,1.30762-1.54395,2.51562l-1.30469,1.35938v.04785h2.95508v.84473h-4.32031v-.71387Z"></path>
      <path class="st0" d="M228.33496,42.22754c0-2.27051.95215-3.57422,2.47752-3.57422,1.17287,0,1.98928.75195,2.14065,1.78516h-.97754c-.13477-.54199-.53223-.9248-1.16311-.9248-.96189,0-1.52537.88086-1.5283,2.36328h.04785c.33594-.55176.93555-.88281,1.62793-.88281,1.1377,0,2.05078.89551,2.04688,2.14551.00391,1.25391-.90625,2.23633-2.27734,2.22266-1.16702-.00879-2.39746-.72949-2.39453-3.13477ZM232.0459,43.15234c.00293-.75586-.54785-1.3584-1.29785-1.3584-.75586,0-1.33887.6377-1.34277,1.36816,0,.7334.55762,1.37109,1.32031,1.37109.75,0,1.32324-.6084,1.32031-1.38086Z"></path>
    </g>
  </g>
</svg>